# xmcd CD database file
#
# Track frame offsets:
#	150
#	17603
#	33622
#	48386
#	85345
#	98208
#	118604
#	144470
#	158325
#	173094
#	194989
#	216251
#	230858
#	257918
#
# Disc length: 3624 seconds
#
# Revision: 2
# Processed by: cddbd v1.5.2PL0 Copyright (c) Steve Scherf et al.
# Submitted via: CDex 1.51
#
DISCID=c70e260e
DTITLE=Smokin' Joe Kubek and Bnois King - Blood Brothers
DYEAR=2008
DGENRE=Blues
TTITLE0=My Dog's Still Walkin'
TTITLE1=Don't Lose My Number
TTITLE2=Flame Thrower
TTITLE3=Stop Drinking
TTITLE4=Must Be Karma
TTITLE5=Freezer Burn
TTITLE6=Coleman Avenue
TTITLE7=Midlife Crisis,Midnight Flight
TTITLE8=Bumpy Ride
TTITLE9=That Ring Don't Mean A Thing
TTITLE10=Cold Folks Boogie
TTITLE11=Out On A Limb
TTITLE12=The Pleasure Was All Mine
TTITLE13=Troubled Dreams
EXTD=YEAR: 2008
EXTT0=
EXTT1=
EXTT2=
EXTT3=
EXTT4=
EXTT5=
EXTT6=
EXTT7=
EXTT8=
EXTT9=
EXTT10=
EXTT11=
EXTT12=
EXTT13=
PLAYORDER=
